<svg xmlns="http://www.w3.org/2000/svg" xmlns:xlink="http://www.w3.org/1999/xlink" xml:space="preserve" id="Layer_1" x="0" y="0" enable-background="new 0 0 64 64" version="1.1" viewBox="0 0 64 64">
  <style>
    .st0{display:none;fill:#CCE4ED;}
	.st1{display:none;fill:none;stroke:#5f1905;stroke-width:2;stroke-linecap:round;stroke-linejoin:round;}
	.st2{display:none;fill:#D9EBF4;}
	.st3{fill:#ce370b;}
	.st4{fill:#F45F34;}
	.st5{fill:none;stroke:#5f1905;stroke-width:2;stroke-linecap:round;stroke-linejoin:round;}
	.st6{fill:#C15B65;}
	.st7{fill:#A54653;}
	.st8{fill:#5f1905;}
	.st9{fill:#842307;}
	.st10{fill:#D9EBF4;}
  </style>
  <path d="M49.6 46.5 33.3 30.2c-3.6-3.6-9.4-3.6-13 0L9.8 40.7c-1 1-2.6 1-3.5 0L5 39.5c-.4-.5-1.2-.5-1.6-.1-.3.2-.4.5-.4.9v17.6h58V45.1c0-1.5-1.2-2.7-2.7-2.7-.7 0-1.4.3-1.9.8l-3.3 3.3c-.9 1-2.5 1-3.5 0z" class="st0"/>
  <path d="M3 57.9h58" class="st1"/>
  <path d="M42 15c0-.3.2-.5.5-.5h2.7c.5 0 .8.4.8.8 0 .5-.4.8-.8.8h-1.3c-.3 0-.5.2-.5.5s-.2.5-.5.5h-2.7c-.5 0-.8-.4-.8-.8 0-.5.4-.8.8-.8h1.3c.3 0 .5-.2.5-.5z" class="st2"/>
  <path d="M46.8 18.7c0-.2-.1-.3-.3-.3H45c-.3 0-.5.2-.5.5s.2.5.5.5h.8c.2 0 .3.1.3.3 0 .2.1.3.3.3h1.5c.3 0 .5-.2.5-.5s-.2-.5-.4-.5h-.8c-.2 0-.4-.1-.4-.3z" class="st2"/>
  <circle cx="43.5" cy="26.6" r=".7" class="st2"/>
  <circle cx="42.7" cy="20.5" r=".7" class="st2"/>
  <circle cx="39.3" cy="21.9" r="1.1" class="st2"/>
  <circle cx="38.7" cy="13.5" r=".3" class="st2"/>
  <circle cx="49.7" cy="21.9" r=".4" class="st2"/>
  <circle cx="46.5" cy="27.5" r="1.1" class="st2"/>
  <circle cx="50.8" cy="18.8" r=".4" class="st2"/>
  <path d="M16.2 11.7c0-.4-.3-.6-.6-.6h-3.4c-.6 0-1.1.5-1.1 1.1 0 .6.5 1.1 1.1 1.1h1.7c.4 0 .6.3.6.6 0 .4.3.6.6.6h3.4c.6 0 1.1-.5 1.1-1.1 0-.6-.5-1.1-1.1-1.1h-1.7c-.3 0-.6-.3-.6-.6z" class="st2"/>
  <path d="M10.1 16.5c0-.2.2-.4.4-.4h2c.3 0 .6.3.6.6s-.3.6-.6.6h-1c-.2 0-.4.2-.4.4s-.2.4-.4.4h-2c-.3 0-.6-.3-.6-.6s.3-.6.6-.6h1c.2 0 .4-.2.4-.4z" class="st2"/>
  <circle cx="14.3" cy="26.6" r=".9" class="st2"/>
  <circle cx="15.4" cy="18.7" r=".9" class="st2"/>
  <circle cx="19.6" cy="20.5" r="1.4" class="st2"/>
  <circle cx="20.5" cy="9.8" r=".5" class="st2"/>
  <circle cx="6.5" cy="20.5" r=".5" class="st2"/>
  <circle cx="10.6" cy="27.7" r="1.4" class="st2"/>
  <circle cx="5" cy="16.6" r=".5" class="st2"/>
  <path d="m55.3 44.4-2.1 2.1c-1 1-2.6 1-3.5 0L33.3 30.2c-.8-.8-1.8-1.5-2.9-2-1.2-.5-2.6.1-3.1 1.3-.1.3-.2.6-.2.9 0 4 1.6 7.9 4.4 10.7l6.2 6.2c4 4 10.6 4 14.6 0l3-2.9z" class="st2"/>
  <circle cx="51.8" cy="9.6" r="3.5" class="st2"/>
  <path d="M24.8 40.9h-8.9c-5.5-.5-9.5-5.4-9-10.9.5-4.8 4.2-8.6 9-9 1 0 1.8.8 1.8 1.8s-.8 1.8-1.8 1.8c-3.5 0-6.4 2.9-6.4 6.4 0 3.5 2.9 6.4 6.4 6.4h8.9c1 0 1.8.8 1.8 1.8s-.8 1.7-1.8 1.7z" class="st3"/>
  <path d="M17 38.9c-2.4 0-4.5-1.3-5.6-3.4-2.5-2.5-2.5-6.5-.1-9 1.2-1.2 2.8-1.9 4.5-1.9 1 0 1.8-.8 1.8-1.8v-.1c-.2-.1-.4-.1-.6-.1-5.5 0-9.9 4.4-10 9.9 0 1.8.5 3.6 1.5 5.2 1.9 2.1 4.6 3.3 7.4 3.3h8.9c1 0 1.8-.8 1.8-1.8v-.1c-.2-.1-.4-.1-.6-.1h-9z" class="st4"/>
  <path d="M24.8 40.9h-8.9c-5.5-.5-9.5-5.4-9-10.9.5-4.8 4.2-8.6 9-9 1 0 1.8.8 1.8 1.8s-.8 1.8-1.8 1.8c0 0 0 0 0 0-3.5 0-6.4 2.9-6.4 6.4 0 3.5 2.9 6.4 6.4 6.4h8.9c1 0 1.8.8 1.8 1.8s-.8 1.7-1.8 1.7z" class="st5"/>
  <path d="M37.6 20.3c1.3 2.2 3.8 3.6 6.4 3.6 2-3.5.8-7.9-2.7-9.9-.9-.5-1.8-.8-2.8-.9-.6-.1-1.1.3-1.4.8-.8 2-.6 4.4.5 6.4z" class="st6"/>
  <path d="M38.9 22c1.3 2.2 3.7 3.6 6.3 3.6 2-3.5.7-8-2.8-9.9-.8-.5-1.7-.8-2.7-.9-.6-.1-1.1.3-1.4.8-.7 2.1-.6 4.5.6 6.4z" class="st7"/>
  <path d="M37.6 20.3c1.3 2.2 3.8 3.6 6.4 3.6 2-3.5.8-7.9-2.7-9.9-.9-.5-1.8-.8-2.8-.9-.6-.1-1.1.3-1.4.8-.8 2-.6 4.4.5 6.4z" class="st5"/>
  <path d="M57 20.3c-1.3 2.2-3.7 3.6-6.3 3.6-2-3.5-.8-7.9 2.7-10 .9-.5 1.8-.8 2.8-.9.6-.1 1.1.3 1.4.8.8 2.1.6 4.5-.6 6.5z" class="st6"/>
  <path d="M55.8 22c-1.3 2.2-3.7 3.6-6.3 3.6-2-3.5-.7-8 2.8-9.9.8-.5 1.7-.8 2.7-.9.6-.1 1.1.3 1.4.8.7 2.1.5 4.5-.6 6.4z" class="st7"/>
  <path d="M57 20.3c-1.3 2.2-3.7 3.6-6.3 3.6-2-3.5-.8-7.9 2.7-10 .9-.5 1.8-.8 2.8-.9.6-.1 1.1.3 1.4.8.8 2.1.6 4.5-.6 6.5z" class="st5"/>
  <path d="M20.4 40.8v3.6c0 1-.7 1.9-1.8 2.1l-2.7.5c-1.9.3-3.2 2.1-2.9 4l1.7 5.4c.1.8.9 1.4 1.7 1.4h3.7c.7 0 1.3-.6 1.3-1.3 0-1-.8-1.7-1.7-1.7-.3 0-.6-.2-.6-.6l-.6-1.6c0-.4.3-.8.7-.9H21c6.3-.3 11.3-5.6 11.3-11.9v-6.3l-6.9 1.2c-2.8.6-5 3.1-5 6.1z" class="st8"/>
  <path d="m53.9 43.2-.3-11.5-25.5 2.6-.6 10.8 16.8 2.5h.8c1.2 0 2.2.8 2.5 2l2.8 6.5c.2.9 1.1 1.6 2 1.5h2.5c.9 0 1.6-.7 1.6-1.6v-.6c0-.6-.4-1.1-1-1.3-.6-.1-1-.6-1-1.2l-.6-9.7z" class="st8"/>
  <path d="m45.5 39.8-.1-10-25.6 4.8-1.2 13.2 17.5.1h.8c1.2 0 2.2.8 2.5 2l2.8 6.5c.2.9 1.1 1.6 2 1.5h2.5c.9 0 1.6-.7 1.6-1.6v-.6c0-.6-.4-1.1-1-1.3-.6-.1-1-.6-1-1.2l-.8-13.4z" class="st4"/>
  <path d="m23.3 44.9-2.2 2.9 15 .1h.8c1.2 0 2.2.8 2.5 2l.7 2.9h1l-1.4-5.1c-.5-1.7-2-2.8-3.7-2.8H23.3z" class="st9"/>
  <path d="m20 36.6 25.4-4.7-.1-2-25.5 4.8-.6 10.8h.4z" class="st3"/>
  <path d="m45.5 39.8-.1-10-25.6 4.8-1.2 13.2 17.5.1h.8c1.2 0 2.2.8 2.5 2l2.8 6.5c.2.9 1.1 1.6 2 1.5h2.5c.9 0 1.6-.7 1.6-1.6v0-.6c0-.6-.4-1.1-1-1.3h0c-.6-.1-1-.6-1-1.2l-.5-10.5" class="st5"/>
  <path d="M41.9 21v9.4l-11.2 2.1c0 6.4 4.9 11.6 11 11.6s11-5.2 11-11.6c.1-6.1-4.6-11.2-10.8-11.5z" class="st4"/>
  <path d="M41 32.6c.8-.1 1.3-.9 1.2-1.7 0-.2-.1-.3-.2-.5l-11.3 2.1c0 .7.1 1.3.2 2" class="st3"/>
  <path d="M52.6 32.5c.1-4.8-2.8-9.1-7.3-10.9l-3.4.7v7.8l.4 1 .8 2.8c1.5 5.3 9.4 4.3 9.5-1.2v-.2z" class="st4"/>
  <path d="m44.6 43.5-.1-5.1 2 4.7c.2.5 0 1.1-.5 1.3s-1.1 0-1.3-.5c-.1-.1-.1-.2-.1-.4z" class="st8"/>
  <path d="M13.5 40.7v3.7c0 1-.7 1.9-1.8 2.1l-2.8.5c-1.9.3-3.2 2.1-2.9 4l1.7 5.5c.1.8.9 1.5 1.7 1.5h3.7c.7 0 1.3-.6 1.3-1.3 0-1-.8-1.7-1.7-1.7-.3 0-.6-.2-.6-.6l-.6-1.6c0-.4.3-.8.7-.9h1.9c6.4-.3 11.4-5.6 11.4-12v-6.3l-6.9 1.2c-3 .4-5.1 2.9-5.1 5.9z" class="st4"/>
  <path d="M13.5 42.7v1.7c0 1-.7 1.9-1.8 2.1l-2.8.5c-1.9.3-3.2 2.1-2.9 4l1.7 5.5c.1.8.9 1.5 1.7 1.5h.5l-1.8-6.8c-.2-1.1.5-2.1 1.6-2.3l3.6-.6c1.4-.2 2.4-1.5 2.4-2.9v-2.1c0-.3-.2-.5-.5-.5l-1.7-.1z" class="st3"/>
  <path d="M18.6 34.7c-2.9.5-5.1 3.1-5.1 6v.7h1.7c.3 0 .5-.2.5-.5 0-2.2 1.6-4 3.7-4.4l4.3-.7c1-.2 1.8-1.1 1.8-2.1v-.2l-6.9 1.2z" class="st3"/>
  <path d="M21.5 47.4c2.3-1.9 3.7-4.6 4-7.6.3 3.2-.6 6.5-2.6 9-.3.4-1 .5-1.4.2-.4-.3-.5-1-.2-1.4 0-.1.1-.2.2-.2z" class="st8"/>
  <path d="M13.5 40.7v3.7c0 1-.7 1.9-1.8 2.1l-2.8.5c-1.9.3-3.2 2.1-2.9 4 0 0 0 0 0 0l1.7 5.5c.1.8.9 1.5 1.7 1.5h3.7c.7 0 1.3-.6 1.3-1.3h0c0-1-.8-1.7-1.7-1.7h0c-.3 0-.6-.2-.6-.6l-.6-1.6c0-.4.3-.8.7-.9h1.9c3.1-.2 6-1.5 8.1-3.7" class="st5"/>
  <path d="M13.9 38.6c.1.7.3 1.5.6 2.1.3.5.1 1.2-.5 1.5-.5.3-1.2.1-1.5-.5-.2-.3-.2-.6-.1-.9l.1-.1c.3-.8.8-1.5 1.4-2.1z" class="st8"/>
  <path d="m26.5 33.3-7.9 1.4" class="st5"/>
  <path d="M18.8 35.6c-2 0-3.9 1.1-4.9 2.9.2-1.1.7-2.2 1.5-3 .8-.9 1.8-1.6 3-1.9h.1c.5-.2 1.1.1 1.3.7.2.5-.1 1.1-.7 1.3h-.3z" class="st8"/>
  <path d="M52.6 32.5c.2-6.1-4.6-11.2-10.7-11.5v9.4l-11.2 2.1" class="st5"/>
  <path d="M45.6 43.3c2-1 3.7-2.6 4.7-4.6 1-1.9 1.5-4.1 1.3-6.2 0-.6.4-1 .9-1.1.6 0 1 .4 1.1.9v.1c-.2 2.4-1 4.8-2.5 6.8-1.3 2-3.3 3.4-5.5 4.1z" class="st8"/>
  <path d="M53.6 21.4h-3.3c-1.9 0-3.4-1.5-3.4-3.4v-2.2h3.7c2.4 0 4.3 1.9 4.3 4.3.1.7-.5 1.3-1.3 1.3z" class="st10"/>
  <path d="M55.5 25.5v-4.3c0-1.8-1-3.5-2.5-4.5-3.5-2-7.8-2-11.3 0-1.6.9-2.6 2.6-2.6 4.5v4.3c0 1.3.7 2.6 1.9 3.3 3.9 2.3 8.7 2.3 12.7 0 1.1-.7 1.9-1.9 1.8-3.3z" class="st4"/>
  <path d="M41.7 27.2v-4.4c0-1.8 1-3.5 2.6-4.5 3.1-1.8 6.7-2 10-.6-.4-.4-.8-.7-1.2-1-3.5-2-7.8-2-11.3 0-1.6.9-2.6 2.6-2.6 4.5v4.3c0 1.3.7 2.6 1.9 3.2.5.3 1 .5 1.5.7-.6-.5-.9-1.4-.9-2.2z" class="st3"/>
  <path d="M53.7 28.8h0c1.2-.7 1.9-1.9 1.9-3.3v-4.3c0-1.8-1-3.5-2.5-4.5h0c-3.5-2-7.8-2-11.3 0h0c-1.6.9-2.6 2.6-2.6 4.5v4.3c0 1.3.7 2.6 1.9 3.3h0" class="st5"/>
  <path d="M46.8 30.5c2.3-.2 4.5-1.1 6.3-2.5.4-.3 1.1-.2 1.4.2.3.4.2 1.1-.2 1.4-.1 0-.1.1-.2.1-2.2.9-4.8 1.2-7.3.8z" class="st8"/>
  <path d="M41.5 27.9c1.5 1.3 3.4 2.2 5.3 2.5-2.1.3-4.3 0-6.3-.8-.5-.2-.8-.8-.6-1.3.2-.5.8-.8 1.3-.6.1.1.2.1.3.2z" class="st8"/>
  <path d="M48.3 24.2c0 .4-.5.7-1 .7s-1-.3-1-.7.5-.4 1-.4 1 .1 1 .4z" class="st6"/>
</svg>
